<svg xmlns="http://www.w3.org/2000/svg" viewBox="0 0 69.122 58.002"><defs><style>.cls-1{fill:#efdda3;}.cls-2{fill:#eaa4a4;}</style></defs><title>Asset 5</title><g id="Layer_2" data-name="Layer 2"><g id="Layer_1-2" data-name="Layer 1"><path d="M5.751,23.391A4.151,4.151,0,0,0,.206,25.867C-.9,28.415,2.633,33.79,6.86,36.061"/><path d="M63.357,24.607c2.905-1.083,4.732-.5,5.5,1.272,1.1,2.546-1.308,7.913-5.5,10.182"/><path d="M61.309,26.719c2.906-.936,2.872-.642,4.5-.1"/><path d="M64.445,29.032A27.87,27.87,0,0,1,49.88,53.661a40.223,40.223,0,0,1-4.526,2.051,32.151,32.151,0,0,1-25.782-.851,20.857,20.857,0,0,1-2.185-1.189c-7.855-5.053-11.595-14.2-11.595-24.64C5.792,13.119,18.922.22,35.119.22S64.445,13.119,64.445,29.032Z"/><path class="cls-1" d="M6.86,25.061a3.923,3.923,0,0,0-5,2c-1,2,2.189,6.217,6,8"/><path class="cls-1" d="M62.619,26.061c2.641-.851,4.3-.4,5,1,1,2-1.189,6.217-5,8"/><path class="cls-1" d="M63.619,29.061A27.084,27.084,0,0,1,49.464,53a37.245,37.245,0,0,1-4.061,1.86,31.547,31.547,0,0,1-25.713-.849,18.924,18.924,0,0,1-1.8-1C10.253,48.1,6.619,39.209,6.619,29.061a28.253,28.253,0,0,1,28.5-28A28.253,28.253,0,0,1,63.619,29.061Z"/><path d="M24.619,45.433a8.843,8.843,0,0,0,6.16,5.429,9.11,9.11,0,0,0,7.84-2.172"/><path class="cls-1" d="M26.119,45.182a7.441,7.441,0,0,0,5.06,4.68,7.27,7.27,0,0,0,6.44-1.872"/><path d="M38.7,47.061c-.136.048-2.616.965-1.849,2.26.747,1.259,3.877,1.711,4.089,1.74"/><path class="cls-1" d="M40.041,47.261c-.122.043-2.353.869-1.663,2.034.672,1.133,3.489,1.54,3.68,1.566"/><circle class="cls-2" cx="49.119" cy="45.561" r="1.5"/><circle class="cls-2" cx="18.119" cy="45.561" r="1.5"/><path d="M64.4,18.917c-1.336-4.272-4.524-7.749-7.819-10.876A32.248,32.248,0,0,0,41.48.428c-8-1.736-18.216,2.076-24.932,6.629C11.165,10.707,3.583,22.015,5.177,29.282L9.282,25.2c3.474-.929,7.137-3.756,9.1-5.18a26.467,26.467,0,0,1-4.658,7.272q5.952-1.751,11.749-3.979a19.824,19.824,0,0,0,2.94-1.345l-3.088,3.981c2.958-.335,5.573-2,8.068-3.63.852-.555,1.709-1.121,2.554-1.706a26.567,26.567,0,0,1-5.223,8.679q5.952-1.751,11.749-3.979a14.251,14.251,0,0,0,4.115-2.151A48.655,48.655,0,0,0,52.333,27.9c2.4,1.765,4.914,3.58,7.849,4.083a9.52,9.52,0,0,1-1.239-5,42.027,42.027,0,0,0,6.226,3.078C66.2,28.061,65.259,21.669,64.4,18.917Z"/><ellipse cx="24.119" cy="34.561" rx="2.5" ry="6.5"/><ellipse cx="41.119" cy="34.561" rx="2.5" ry="6.5"/></g></g></svg>