<svg xmlns="http://www.w3.org/2000/svg" viewBox="0 0 79 81.461"><defs><style>.cls-1{fill:#464eaf;}.cls-2{fill:#c42c2c;stroke:#000;stroke-miterlimit:10;}.cls-3{fill:#fff;}</style></defs><title>Asset 6</title><g id="Layer_2" data-name="Layer 2"><g id="Layer_1-2" data-name="Layer 1"><path class="cls-1" d="M66.92,80.961a28.627,28.627,0,0,1-8.268-1.314,25.556,25.556,0,0,1-10.22-5.684c-2.368-2.313-3.336-4.678-2.727-6.66.808-2.63,4.4-4.264,9.375-4.264a28.627,28.627,0,0,1,8.268,1.314,25.556,25.556,0,0,1,10.22,5.684C75.936,72.35,76.9,74.715,76.3,76.7,75.487,79.327,71.9,80.961,66.92,80.961Z"/><path d="M55.08,63.539h0A28.143,28.143,0,0,1,63.2,64.83,25.053,25.053,0,0,1,73.219,70.4c2.226,2.175,3.149,4.361,2.6,6.155-.741,2.413-4.15,3.911-8.9,3.911A28.143,28.143,0,0,1,58.8,79.17a25.053,25.053,0,0,1-10.017-5.565c-2.226-2.175-3.149-4.361-2.6-6.155.741-2.413,4.15-3.911,8.9-3.911m0-1c-5.051,0-8.941,1.648-9.853,4.617-1.378,4.488,4.566,10.294,13.278,12.969a28.993,28.993,0,0,0,8.415,1.336c5.051,0,8.941-1.648,9.853-4.617C78.151,72.356,72.207,66.55,63.5,63.875a28.993,28.993,0,0,0-8.415-1.336Z"/><path class="cls-1" d="M12.08,80.961c-4.975,0-8.567-1.634-9.375-4.264-.609-1.982.359-4.347,2.727-6.66a25.556,25.556,0,0,1,10.22-5.684,28.627,28.627,0,0,1,8.268-1.314c4.975,0,8.567,1.634,9.375,4.264.609,1.982-.359,4.347-2.727,6.66a25.556,25.556,0,0,1-10.22,5.684,28.621,28.621,0,0,1-8.268,1.314Z"/><path d="M23.92,63.539c4.747,0,8.156,1.5,8.9,3.911.551,1.794-.372,3.98-2.6,6.155A25.053,25.053,0,0,1,20.2,79.17a28.143,28.143,0,0,1-8.122,1.291c-4.747,0-8.156-1.5-8.9-3.911-.551-1.794.372-3.98,2.6-6.155A25.053,25.053,0,0,1,15.8,64.83a28.143,28.143,0,0,1,8.122-1.291m0-1a28.993,28.993,0,0,0-8.415,1.336C6.793,66.55.849,72.356,2.227,76.844c.912,2.969,4.8,4.617,9.853,4.617A28.993,28.993,0,0,0,20.5,80.125c8.712-2.675,14.656-8.481,13.278-12.969-.912-2.969-4.8-4.617-9.853-4.617Z"/><ellipse class="cls-2" cx="39.5" cy="37" rx="39" ry="36.5"/><ellipse class="cls-3" cx="29" cy="24" rx="8" ry="15"/><path d="M29,9.5c4.065,0,7.5,6.64,7.5,14.5S33.065,38.5,29,38.5,21.5,31.86,21.5,24,24.935,9.5,29,9.5m0-1c-4.694,0-8.5,6.94-8.5,15.5S24.306,39.5,29,39.5s8.5-6.94,8.5-15.5S33.694,8.5,29,8.5Z"/><ellipse class="cls-3" cx="49" cy="24" rx="8" ry="15"/><path d="M49,9.5c4.065,0,7.5,6.64,7.5,14.5S53.065,38.5,49,38.5,41.5,31.86,41.5,24,44.935,9.5,49,9.5m0-1c-4.694,0-8.5,6.94-8.5,15.5S44.306,39.5,49,39.5s8.5-6.94,8.5-15.5S53.694,8.5,49,8.5Z"/></g></g></svg>