<svg xmlns="http://www.w3.org/2000/svg" viewBox="0 0 76.049 38"><defs><style>.cls-1,.cls-2{fill:#fff;}.cls-2{stroke:#000;stroke-miterlimit:10;}.cls-3{fill:#ffa79f;}</style></defs><title>Asset 5</title><g id="Layer_2" data-name="Layer 2"><g id="Layer_1-2" data-name="Layer 1"><rect width="76.049" height="38"/><rect class="cls-1" x="1.035" y="1" width="74.039" height="36"/><polygon class="cls-2" points="2.486 1 37.976 21.665 73.611 1 2.486 1"/><path d="M51.033,12.665h0a6.045,6.045,0,0,0-8.441-1.772h0c-2.224,1.481-3.69,2.8-4.122,5.365-.779-2.414-2.5-3.459-4.836-4.62h0a6.043,6.043,0,0,0-8.15,2.821h0A7.336,7.336,0,0,0,28.56,22.13L39.242,29.3l-.014-.437.024.257,9.7-8.458A7.339,7.339,0,0,0,51.033,12.665Z"/><path class="cls-3" d="M49.383,13.568h0a5.255,5.255,0,0,0-7.339-1.541h0a8.307,8.307,0,0,0-3.585,5.535,8.3,8.3,0,0,0-4.205-4.887h0a5.256,5.256,0,0,0-7.087,2.453h0A6.38,6.38,0,0,0,29.841,21.8l9.29,6.235-.013-.38.021.224,8.43-7.355A6.381,6.381,0,0,0,49.383,13.568Z"/></g></g></svg>