<svg xmlns="http://www.w3.org/2000/svg" viewBox="0 0 95.677 84"><defs><style>.cls-1{fill:#c42c2c;}.cls-2{fill:#ffb0aa;}.cls-3{fill:none;stroke:#000;stroke-miterlimit:10;}.cls-4{fill:#00691a;}</style></defs><title>Asset 10</title><g id="Layer_2" data-name="Layer 2"><g id="Layer_1-2" data-name="Layer 1"><path d="M64.254,16.225a57.126,57.126,0,0,0-13.246-2.777L56.175,0,44.783,12.959,29.928,11.824l4.287,2.266a48.769,48.769,0,0,0-13.859,4.769C2.7,28.181-4.639,44.579,3.012,62.121c7.513,17.224,30.611,22.972,52.443,21.712C78.8,82.486,94.834,72.6,95.65,53.387,96.41,35.523,80.807,22.654,64.254,16.225Z"/><path class="cls-1" d="M63.568,17.7c15.861,5.988,30.811,17.975,30.084,34.614-.783,17.9-16.148,27.1-38.515,28.358C34.217,81.847,12.085,76.492,4.886,60.45c-7.331-16.339-.3-31.612,16.619-40.295C40.557,10.379,61.356,16.867,63.568,17.7Z"/><ellipse class="cls-2" cx="70.448" cy="55.056" rx="12.519" ry="4.382"/><ellipse class="cls-2" cx="20.374" cy="55.056" rx="12.519" ry="4.382"/><circle cx="28.711" cy="38.582" r="4.582"/><circle cx="56.037" cy="38.582" r="4.582"/><path class="cls-3" d="M37.892,50.943a5.368,5.368,0,0,0,10.662,0"/><polygon class="cls-4" points="30.677 13.602 44.911 14.66 55.826 2.589 47.963 22.483 30.677 13.602"/></g></g></svg>