<svg xmlns="http://www.w3.org/2000/svg" viewBox="0 0 13832 160" width="13832" height="160"><path d="M0-84h151.675l-75.838-75.837z" fill="#003a48"/><path d="M0-79h151.675l-75.838-75.837z" fill="#46a3a3"/><path d="M.837-75h150l-75-75zM152-62.347h151.675l-75.838-56.288z" fill="#003a48"/><path d="M152-79h151.675l-75.838-75.837z" fill="#46a3a3"/><path d="M152.837-75h150l-75-75zM304-42.187h151.675l-75.838-38.087z" fill="#003a48"/><path d="M304-79h151.675l-75.838-75.837z" fill="#46a3a3"/><path d="M304.837-75h150l-75-75zM456-23.52h151.675l-75.838-21.234z" fill="#003a48"/><path d="M456-79h151.675l-75.838-75.837z" fill="#46a3a3"/><path d="M456.837-75h150l-75-75zM608-6.347h151.675l-75.838-5.73z" fill="#003a48"/><path d="M608-79h151.675l-75.838-75.837z" fill="#46a3a3"/><path d="M608.837-75h150l-75-75zM760 9.333h151.675l-75.838 8.427z" fill="#003a48"/><path d="M760-79h151.675l-75.838-75.837z" fill="#46a3a3"/><path d="M760.837-75h150l-75-75zM912 23.52h151.675l-75.838 21.234z" fill="#003a48"/><path d="M912-79h151.675l-75.838-75.837z" fill="#46a3a3"/><path d="M912.837-75h150l-75-75zM1064 36.213h151.675l-75.838 32.695z" fill="#003a48"/><path d="M1064-79h151.675l-75.838-75.837z" fill="#46a3a3"/><path d="M1064.837-75h150l-75-75zM1216 47.413h151.675l-75.838 42.806z" fill="#003a48"/><path d="M1216-79h151.675l-75.838-75.837z" fill="#46a3a3"/><path d="M1216.837-75h150l-75-75zM1368 57.12h151.675l-75.838 51.569z" fill="#003a48"/><path d="M1368-79h151.675l-75.838-75.837z" fill="#46a3a3"/><path d="M1368.837-75h150l-75-75zM1520 65.333h151.675l-75.838 58.985z" fill="#003a48"/><path d="M1520-79h151.675l-75.838-75.837z" fill="#46a3a3"/><path d="M1520.837-75h150l-75-75zM1672 72.053h151.675l-75.838 65.052z" fill="#003a48"/><path d="M1672-79h151.675l-75.838-75.837z" fill="#46a3a3"/><path d="M1672.837-75h150l-75-75zM1824 77.28h151.675l-75.838 69.77z" fill="#003a48"/><path d="M1824-79h151.675l-75.838-75.837z" fill="#46a3a3"/><path d="M1824.837-75h150l-75-75zM1976 81.013h151.675l-75.838 73.141z" fill="#003a48"/><path d="M1976-79h151.675l-75.838-75.837z" fill="#46a3a3"/><path d="M1976.837-75h150l-75-75zM2128 83.253h151.675l-75.838 75.163z" fill="#003a48"/><path d="M2128-79h151.675l-75.838-75.837z" fill="#46a3a3"/><path d="M2128.837-75h150l-75-75zM2280 84h151.675l-75.838 75.837z" fill="#003a48"/><path d="M2280-79h151.675l-75.838-75.837z" fill="#46a3a3"/><path d="M2280.837-75h150l-75-75zM2432 84h151.675l-75.838 75.837z" fill="#003a48"/><path d="M2432-58.636h151.675l-75.838-56.287z" fill="#46a3a3"/><path d="M2432.837-75h150l-75-75zM2584 84h151.675l-75.838 75.837z" fill="#003a48"/><path d="M2584-39.676h151.675l-75.838-38.087z" fill="#46a3a3"/><path d="M2584.837-75h150l-75-75zM2736 84h151.675l-75.838 75.837z" fill="#003a48"/><path d="M2736-22.12h151.675l-75.838-21.234z" fill="#46a3a3"/><path d="M2736.837-75h150l-75-75zM2888 84h151.675l-75.838 75.837z" fill="#003a48"/><path d="M2888-5.969h151.675l-75.838-5.73z" fill="#46a3a3"/><path d="M2888.837-75h150l-75-75zM3040 84h151.675l-75.838 75.837z" fill="#003a48"/><path d="M3040 8.778h151.675l-75.838 8.426z" fill="#46a3a3"/><path d="M3040.837-75h150l-75-75zM3192 84h151.675l-75.838 75.837z" fill="#003a48"/><path d="M3192 22.12h151.675l-75.838 21.234z" fill="#46a3a3"/><path d="M3192.837-75h150l-75-75zM3344 84h151.675l-75.838 75.837z" fill="#003a48"/><path d="M3344 34.058h151.675l-75.838 32.694z" fill="#46a3a3"/><path d="M3344.837-75h150l-75-75zM3496 84h151.675l-75.838 75.837z" fill="#003a48"/><path d="M3496 44.591h151.675l-75.838 42.806z" fill="#46a3a3"/><path d="M3496.837-75h150l-75-75zM3648 84h151.675l-75.838 75.837z" fill="#003a48"/><path d="M3648 53.72h151.675l-75.838 51.569z" fill="#46a3a3"/><path d="M3648.837-75h150l-75-75zM3800 84h151.675l-75.838 75.837z" fill="#003a48"/><path d="M3800 61.444h151.675l-75.838 58.985z" fill="#46a3a3"/><path d="M3800.837-75h150l-75-75zM3952 84h151.675l-75.838 75.837z" fill="#003a48"/><path d="M3952 67.764h151.675l-75.838 65.052z" fill="#46a3a3"/><path d="M3952.837-75h150l-75-75zM4104 84h151.675l-75.838 75.837z" fill="#003a48"/><path d="M4104 72.68h151.675l-75.838 69.77z" fill="#46a3a3"/><path d="M4104.837-75h150l-75-75zM4256 84h151.675l-75.838 75.837z" fill="#003a48"/><path d="M4256 76.191h151.675l-75.838 73.141z" fill="#46a3a3"/><path d="M4256.837-75h150l-75-75zM4408 84h151.675l-75.838 75.837z" fill="#003a48"/><path d="M4408 78.298h151.675l-75.838 75.163z" fill="#46a3a3"/><path d="M4408.837-75h150l-75-75zM4560 84h151.675l-75.838 75.837z" fill="#003a48"/><path d="M4560 79h151.675l-75.838 75.837z" fill="#46a3a3"/><path d="M4560.837-75h150l-75-75z" fill="#003a48"/><g><path d="M4712 84h151.675l-75.838 75.837z" fill="#003a48"/><path d="M4712 79h151.675l-75.838 75.837z" fill="#46a3a3"/><path d="M4712.837-55.667h150l-75-55.666z" fill="#003a48"/></g><g><path d="M4864 84h151.675l-75.838 75.837z" fill="#003a48"/><path d="M4864 79h151.675l-75.838 75.837z" fill="#46a3a3"/><path d="M4864.837-37.667h150l-75-37.666z" fill="#003a48"/></g><g><path d="M5016 84h151.675l-75.838 75.837z" fill="#003a48"/><path d="M5016 79h151.675l-75.838 75.837z" fill="#46a3a3"/><path d="M5016.837-21h150l-75-21z" fill="#003a48"/></g><g><path d="M5168 84h151.675l-75.838 75.837z" fill="#003a48"/><path d="M5168 79h151.675l-75.838 75.837z" fill="#46a3a3"/><path d="M5168.837-5.667h150l-75-5.666z" fill="#003a48"/></g><g><path d="M5320 84h151.675l-75.838 75.837z" fill="#003a48"/><path d="M5320 79h151.675l-75.838 75.837z" fill="#46a3a3"/><path d="M5320.837 8.333h150l-75 8.334z" fill="#003a48"/></g><g><path d="M5472 84h151.675l-75.838 75.837z" fill="#003a48"/><path d="M5472 79h151.675l-75.838 75.837z" fill="#46a3a3"/><path d="M5472.837 21h150l-75 21z" fill="#003a48"/></g><g><path d="M5624 84h151.675l-75.838 75.837z" fill="#003a48"/><path d="M5624 79h151.675l-75.838 75.837z" fill="#46a3a3"/><path d="M5624.837 32.333h150l-75 32.334z" fill="#003a48"/></g><g><path d="M5776 84h151.675l-75.838 75.837z" fill="#003a48"/><path d="M5776 79h151.675l-75.838 75.837z" fill="#46a3a3"/><path d="M5776.837 42.333h150l-75 42.334z" fill="#003a48"/></g><g><path d="M5928 84h151.675l-75.838 75.837z" fill="#003a48"/><path d="M5928 79h151.675l-75.838 75.837z" fill="#46a3a3"/><path d="M5928.837 51h150l-75 51z" fill="#003a48"/></g><g><path d="M6080 84h151.675l-75.838 75.837z" fill="#003a48"/><path d="M6080 79h151.675l-75.838 75.837z" fill="#46a3a3"/><path d="M6080.837 58.333h150l-75 58.334z" fill="#003a48"/></g><g><path d="M6232 84h151.675l-75.838 75.837z" fill="#003a48"/><path d="M6232 79h151.675l-75.838 75.837z" fill="#46a3a3"/><path d="M6232.837 64.333h150l-75 64.334z" fill="#003a48"/></g><g><path d="M6384 84h151.675l-75.838 75.837z" fill="#003a48"/><path d="M6384 79h151.675l-75.838 75.837z" fill="#46a3a3"/><path d="M6384.837 69h150l-75 69z" fill="#003a48"/></g><g><path d="M6536 84h151.675l-75.838 75.837z" fill="#003a48"/><path d="M6536 79h151.675l-75.838 75.837z" fill="#46a3a3"/><path d="M6536.837 72.333h150l-75 72.334z" fill="#003a48"/></g><g><path d="M6688 84h151.675l-75.838 75.837z" fill="#003a48"/><path d="M6688 79h151.675l-75.838 75.837z" fill="#46a3a3"/><path d="M6688.837 74.333h150l-75 74.334z" fill="#003a48"/></g><g><path d="M6840 84h151.675l-75.838 75.837z" fill="#003a48"/><path d="M6840 79h151.675l-75.838 75.837z" fill="#46a3a3"/><path d="M6840.837 75h150l-75 75z" fill="#003a48"/></g><g><path d="M6992 84h151.675l-75.838 75.837z" fill="#003a48"/><path d="M6992 79h151.675l-75.838 75.837z" fill="#46a3a3"/><path d="M6992.837 75h150l-75 75z" fill="#003a48"/><path d="M7142.837 75h-150l75-75z" fill="#024a56" fill-opacity=".128889"/></g><g><path d="M7144 84h151.675l-75.838 75.837z" fill="#003a48"/><path d="M7144 79h151.675l-75.838 75.837z" fill="#46a3a3"/><path d="M7144.837 75h150l-75 75z" fill="#003a48"/><path d="M7294.837 75h-150l75-75z" fill="#024a56" fill-opacity=".248889"/></g><g><path d="M7296 84h151.675l-75.838 75.837z" fill="#003a48"/><path d="M7296 79h151.675l-75.838 75.837z" fill="#46a3a3"/><path d="M7296.837 75h150l-75 75z" fill="#003a48"/><path d="M7446.837 75h-150l75-75z" fill="#024a56" fill-opacity=".36"/></g><g><path d="M7448 84h151.675l-75.838 75.837z" fill="#003a48"/><path d="M7448 79h151.675l-75.838 75.837z" fill="#46a3a3"/><path d="M7448.837 75h150l-75 75z" fill="#003a48"/><path d="M7598.837 75h-150l75-75z" fill="#024a56" fill-opacity=".462222"/></g><g><path d="M7600 84h151.675l-75.838 75.837z" fill="#003a48"/><path d="M7600 79h151.675l-75.838 75.837z" fill="#46a3a3"/><path d="M7600.837 75h150l-75 75z" fill="#003a48"/><path d="M7750.837 75h-150l75-75z" fill="#024a56" fill-opacity=".555556"/></g><g><path d="M7752 84h151.675l-75.838 75.837z" fill="#003a48"/><path d="M7752 79h151.675l-75.838 75.837z" fill="#46a3a3"/><path d="M7752.837 75h150l-75 75z" fill="#003a48"/><path d="M7902.837 75h-150l75-75z" fill="#024a56" fill-opacity=".64"/></g><g><path d="M7904 84h151.675l-75.838 75.837z" fill="#003a48"/><path d="M7904 79h151.675l-75.838 75.837z" fill="#46a3a3"/><path d="M7904.837 75h150l-75 75z" fill="#003a48"/><path d="M8054.837 75h-150l75-75z" fill="#024a56" fill-opacity=".715556"/></g><g><path d="M8056 84h151.675l-75.838 75.837z" fill="#003a48"/><path d="M8056 79h151.675l-75.838 75.837z" fill="#46a3a3"/><path d="M8056.837 75h150l-75 75z" fill="#003a48"/><path d="M8206.837 75h-150l75-75z" fill="#024a56" fill-opacity=".782222"/></g><g><path d="M8208 84h151.675l-75.838 75.837z" fill="#003a48"/><path d="M8208 79h151.675l-75.838 75.837z" fill="#46a3a3"/><path d="M8208.837 75h150l-75 75z" fill="#003a48"/><path d="M8358.837 75h-150l75-75z" fill="#024a56" fill-opacity=".84"/></g><g><path d="M8360 84h151.675l-75.838 75.837z" fill="#003a48"/><path d="M8360 79h151.675l-75.838 75.837z" fill="#46a3a3"/><path d="M8360.837 75h150l-75 75z" fill="#003a48"/><path d="M8510.837 75h-150l75-75z" fill="#024a56" fill-opacity=".888889"/></g><g><path d="M8512 84h151.675l-75.838 75.837z" fill="#003a48"/><path d="M8512 79h151.675l-75.838 75.837z" fill="#46a3a3"/><path d="M8512.837 75h150l-75 75z" fill="#003a48"/><path d="M8662.837 75h-150l75-75z" fill="#024a56" fill-opacity=".928889"/></g><g><path d="M8664 84h151.675l-75.838 75.837z" fill="#003a48"/><path d="M8664 79h151.675l-75.838 75.837z" fill="#46a3a3"/><path d="M8664.837 75h150l-75 75z" fill="#003a48"/><path d="M8814.837 75h-150l75-75z" fill="#024a56" fill-opacity=".96"/></g><g><path d="M8816 84h151.675l-75.838 75.837z" fill="#003a48"/><path d="M8816 79h151.675l-75.838 75.837z" fill="#46a3a3"/><path d="M8816.837 75h150l-75 75z" fill="#003a48"/><path d="M8966.837 75h-150l75-75z" fill="#024a56" fill-opacity=".982222"/></g><g><path d="M8968 84h151.675l-75.838 75.837z" fill="#003a48"/><path d="M8968 79h151.675l-75.838 75.837z" fill="#46a3a3"/><path d="M8968.837 75h150l-75 75z" fill="#003a48"/><path d="M9118.837 75h-150l75-75z" fill="#024a56" fill-opacity=".995556"/></g><g><path d="M9120 84h151.675l-75.838 75.837z" fill="#003a48"/><path d="M9120 79h151.675l-75.838 75.837z" fill="#46a3a3"/><path d="M9120.837 75h150l-75 75z" fill="#003a48"/><path d="M9270.837 75h-150l75-75z" fill="#024a56"/></g><g><path d="M9272 84h151.675l-75.838 75.837z" fill="#003a48"/><path d="M9272 79h151.675l-75.838 75.837z" fill="#46a3a3"/><path d="M9272.837 75h150l-75 75z" fill="#003a48"/><path d="M9422.837 75h-150l75-75z" fill="#024a56"/><path d="M9300.337 75h95l-47.5 47.5z" fill="#46a3a3" fill-opacity=".010641"/><path d="M9395.337 75h-95l47.5-47.5z" fill="#6dbfbd" fill-opacity=".010641"/></g><g><path d="M9424 84h151.675l-75.838 75.837z" fill="#003a48"/><path d="M9424 79h151.675l-75.838 75.837z" fill="#46a3a3"/><path d="M9424.837 75h150l-75 75z" fill="#003a48"/><path d="M9574.837 75h-150l75-75z" fill="#024a56"/><path d="M9452.337 75h95l-47.5 47.5z" fill="#46a3a3" fill-opacity=".049931"/><path d="M9547.337 75h-95l47.5-47.5z" fill="#6dbfbd" fill-opacity=".049931"/></g><g><path d="M9576 84h151.675l-75.838 75.837z" fill="#003a48"/><path d="M9576 79h151.675l-75.838 75.837z" fill="#46a3a3"/><path d="M9576.837 75h150l-75 75z" fill="#003a48"/><path d="M9726.837 75h-150l75-75z" fill="#024a56"/><path d="M9604.337 75h95l-47.5 47.5z" fill="#46a3a3" fill-opacity=".133947"/><path d="M9699.337 75h-95l47.5-47.5z" fill="#6dbfbd" fill-opacity=".133947"/></g><g><path d="M9728 84h151.675l-75.838 75.837z" fill="#003a48"/><path d="M9728 79h151.675l-75.838 75.837z" fill="#46a3a3"/><path d="M9728.837 75h150l-75 75z" fill="#003a48"/><path d="M9878.837 75h-150l75-75z" fill="#024a56"/><path d="M9756.337 75h95l-47.5 47.5z" fill="#46a3a3" fill-opacity=".278054"/><path d="M9851.337 75h-95l47.5-47.5z" fill="#6dbfbd" fill-opacity=".278054"/></g><g><path d="M9880 84h151.675l-75.838 75.837z" fill="#003a48"/><path d="M9880 79h151.675l-75.838 75.837z" fill="#46a3a3"/><path d="M9880.837 75h150l-75 75z" fill="#003a48"/><path d="M10030.837 75h-150l75-75z" fill="#024a56"/><path d="M9908.337 75h95l-47.5 47.5z" fill="#46a3a3" fill-opacity=".457252"/><path d="M10003.337 75h-95l47.5-47.5z" fill="#6dbfbd" fill-opacity=".457252"/></g><g><path d="M10032 84h151.675l-75.838 75.837z" fill="#003a48"/><path d="M10032 79h151.675l-75.838 75.837z" fill="#46a3a3"/><path d="M10032.837 75h150l-75 75z" fill="#003a48"/><path d="M10182.837 75h-150l75-75z" fill="#024a56"/><path d="M10060.337 75h95l-47.5 47.5z" fill="#46a3a3" fill-opacity=".613595"/><path d="M10155.337 75h-95l47.5-47.5z" fill="#6dbfbd" fill-opacity=".613595"/></g><g><path d="M10184 84h151.675l-75.838 75.837z" fill="#003a48"/><path d="M10184 79h151.675l-75.838 75.837z" fill="#46a3a3"/><path d="M10184.837 75h150l-75 75z" fill="#003a48"/><path d="M10334.837 75h-150l75-75z" fill="#024a56"/><path d="M10212.337 75h95l-47.5 47.5z" fill="#46a3a3" fill-opacity=".729967"/><path d="M10307.337 75h-95l47.5-47.5z" fill="#6dbfbd" fill-opacity=".729967"/></g><g><path d="M10336 84h151.675l-75.838 75.837z" fill="#003a48"/><path d="M10336 79h151.675l-75.838 75.837z" fill="#46a3a3"/><path d="M10336.837 75h150l-75 75z" fill="#003a48"/><path d="M10486.837 75h-150l75-75z" fill="#024a56"/><path d="M10364.337 75h95l-47.5 47.5z" fill="#46a3a3" fill-opacity=".814432"/><path d="M10459.337 75h-95l47.5-47.5z" fill="#6dbfbd" fill-opacity=".814432"/></g><g><path d="M10488 84h151.675l-75.838 75.837z" fill="#003a48"/><path d="M10488 79h151.675l-75.838 75.837z" fill="#46a3a3"/><path d="M10488.837 75h150l-75 75z" fill="#003a48"/><path d="M10638.837 75h-150l75-75z" fill="#024a56"/><path d="M10516.337 75h95l-47.5 47.5z" fill="#46a3a3" fill-opacity=".875968"/><path d="M10611.337 75h-95l47.5-47.5z" fill="#6dbfbd" fill-opacity=".875968"/></g><g><path d="M10640 84h151.675l-75.838 75.837z" fill="#003a48"/><path d="M10640 79h151.675l-75.838 75.837z" fill="#46a3a3"/><path d="M10640.837 75h150l-75 75z" fill="#003a48"/><path d="M10790.837 75h-150l75-75z" fill="#024a56"/><path d="M10668.337 75h95l-47.5 47.5z" fill="#46a3a3" fill-opacity=".920776"/><path d="M10763.337 75h-95l47.5-47.5z" fill="#6dbfbd" fill-opacity=".920776"/></g><g><path d="M10792 84h151.675l-75.838 75.837z" fill="#003a48"/><path d="M10792 79h151.675l-75.838 75.837z" fill="#46a3a3"/><path d="M10792.837 75h150l-75 75z" fill="#003a48"/><path d="M10942.837 75h-150l75-75z" fill="#024a56"/><path d="M10820.337 75h95l-47.5 47.5z" fill="#46a3a3" fill-opacity=".952952"/><path d="M10915.337 75h-95l47.5-47.5z" fill="#6dbfbd" fill-opacity=".952952"/></g><g><path d="M10944 84h151.675l-75.838 75.837z" fill="#003a48"/><path d="M10944 79h151.675l-75.838 75.837z" fill="#46a3a3"/><path d="M10944.837 75h150l-75 75z" fill="#003a48"/><path d="M11094.837 75h-150l75-75z" fill="#024a56"/><path d="M10972.337 75h95l-47.5 47.5z" fill="#46a3a3" fill-opacity=".975268"/><path d="M11067.337 75h-95l47.5-47.5z" fill="#6dbfbd" fill-opacity=".975268"/></g><g><path d="M11096 84h151.675l-75.838 75.837z" fill="#003a48"/><path d="M11096 79h151.675l-75.838 75.837z" fill="#46a3a3"/><path d="M11096.837 75h150l-75 75z" fill="#003a48"/><path d="M11246.837 75h-150l75-75z" fill="#024a56"/><path d="M11124.337 75h95l-47.5 47.5z" fill="#46a3a3" fill-opacity=".989667"/><path d="M11219.337 75h-95l47.5-47.5z" fill="#6dbfbd" fill-opacity=".989667"/></g><g><path d="M11248 84h151.675l-75.838 75.837z" fill="#003a48"/><path d="M11248 79h151.675l-75.838 75.837z" fill="#46a3a3"/><path d="M11248.837 75h150l-75 75z" fill="#003a48"/><path d="M11398.837 75h-150l75-75z" fill="#024a56"/><path d="M11276.337 75h95l-47.5 47.5z" fill="#46a3a3" fill-opacity=".99756"/><path d="M11371.337 75h-95l47.5-47.5z" fill="#6dbfbd" fill-opacity=".99756"/></g><g><path d="M11400 84h151.675l-75.838 75.837z" fill="#003a48"/><path d="M11400 79h151.675l-75.838 75.837z" fill="#46a3a3"/><path d="M11400.837 75h150l-75 75z" fill="#003a48"/><path d="M11550.837 75h-150l75-75z" fill="#024a56"/><path d="M11428.337 75h95l-47.5 47.5z" fill="#46a3a3"/><path d="M11523.337 75h-95l47.5-47.5z" fill="#6dbfbd"/><path d="M11460.567 75h30.541l-15.271 15.271z" fill="#46a3a3"/></g><g><path d="M11552 84h151.675l-75.838 75.837z" fill="#003a48"/><path d="M11552 79h151.675l-75.838 75.837z" fill="#46a3a3"/><path d="M11552.837 75h150l-75 75z" fill="#003a48"/><path d="M11702.837 75h-150l75-75z" fill="#024a56"/><path d="M11580.337 75h95l-47.5 47.5z" fill="#46a3a3"/><path d="M11603 75h49.675l-24.838 24.838z" fill="#ffffff" fill-opacity=".010641"/><path d="M11675.337 75h-95l47.5-47.5z" fill="#6dbfbd"/><path d="M11612.567 75h30.541l-15.271 15.271z" fill="#46a3a3"/></g><g><path d="M11704 84h151.675l-75.838 75.837z" fill="#003a48"/><path d="M11704 79h151.675l-75.838 75.837z" fill="#46a3a3"/><path d="M11704.837 75h150l-75 75z" fill="#003a48"/><path d="M11854.837 75h-150l75-75z" fill="#024a56"/><path d="M11732.337 75h95l-47.5 47.5z" fill="#46a3a3"/><path d="M11755 75h49.675l-24.838 24.838z" fill="#ffffff" fill-opacity=".049931"/><path d="M11827.337 75h-95l47.5-47.5z" fill="#6dbfbd"/><path d="M11764.567 75h30.541l-15.271 15.271z" fill="#46a3a3"/></g><g><path d="M11856 84h151.675l-75.838 75.837z" fill="#003a48"/><path d="M11856 79h151.675l-75.838 75.837z" fill="#46a3a3"/><path d="M11856.837 75h150l-75 75z" fill="#003a48"/><path d="M12006.837 75h-150l75-75z" fill="#024a56"/><path d="M11884.337 75h95l-47.5 47.5z" fill="#46a3a3"/><path d="M11907 75h49.675l-24.838 24.838z" fill="#ffffff" fill-opacity=".133947"/><path d="M11979.337 75h-95l47.5-47.5z" fill="#6dbfbd"/><path d="M11916.567 75h30.541l-15.271 15.271z" fill="#46a3a3"/></g><g><path d="M12008 84h151.675l-75.838 75.837z" fill="#003a48"/><path d="M12008 79h151.675l-75.838 75.837z" fill="#46a3a3"/><path d="M12008.837 75h150l-75 75z" fill="#003a48"/><path d="M12158.837 75h-150l75-75z" fill="#024a56"/><path d="M12036.337 75h95l-47.5 47.5z" fill="#46a3a3"/><path d="M12059 75h49.675l-24.838 24.838z" fill="#ffffff" fill-opacity=".278054"/><path d="M12131.337 75h-95l47.5-47.5z" fill="#6dbfbd"/><path d="M12068.567 75h30.541l-15.271 15.271z" fill="#46a3a3"/></g><g><path d="M12160 84h151.675l-75.838 75.837z" fill="#003a48"/><path d="M12160 79h151.675l-75.838 75.837z" fill="#46a3a3"/><path d="M12160.837 75h150l-75 75z" fill="#003a48"/><path d="M12310.837 75h-150l75-75z" fill="#024a56"/><path d="M12188.337 75h95l-47.5 47.5z" fill="#46a3a3"/><path d="M12211 75h49.675l-24.838 24.838z" fill="#ffffff" fill-opacity=".457252"/><path d="M12283.337 75h-95l47.5-47.5z" fill="#6dbfbd"/><path d="M12220.567 75h30.541l-15.271 15.271z" fill="#46a3a3"/></g><g><path d="M12312 84h151.675l-75.838 75.837z" fill="#003a48"/><path d="M12312 79h151.675l-75.838 75.837z" fill="#46a3a3"/><path d="M12312.837 75h150l-75 75z" fill="#003a48"/><path d="M12462.837 75h-150l75-75z" fill="#024a56"/><path d="M12340.337 75h95l-47.5 47.5z" fill="#46a3a3"/><path d="M12363 75h49.675l-24.838 24.838z" fill="#ffffff" fill-opacity=".613595"/><path d="M12435.337 75h-95l47.5-47.5z" fill="#6dbfbd"/><path d="M12372.567 75h30.541l-15.271 15.271z" fill="#46a3a3"/></g><g><path d="M12464 84h151.675l-75.838 75.837z" fill="#003a48"/><path d="M12464 79h151.675l-75.838 75.837z" fill="#46a3a3"/><path d="M12464.837 75h150l-75 75z" fill="#003a48"/><path d="M12614.837 75h-150l75-75z" fill="#024a56"/><path d="M12492.337 75h95l-47.5 47.5z" fill="#46a3a3"/><path d="M12515 75h49.675l-24.838 24.838z" fill="#ffffff" fill-opacity=".729967"/><path d="M12587.337 75h-95l47.5-47.5z" fill="#6dbfbd"/><path d="M12524.567 75h30.541l-15.271 15.271z" fill="#46a3a3"/></g><g><path d="M12616 84h151.675l-75.838 75.837z" fill="#003a48"/><path d="M12616 79h151.675l-75.838 75.837z" fill="#46a3a3"/><path d="M12616.837 75h150l-75 75z" fill="#003a48"/><path d="M12766.837 75h-150l75-75z" fill="#024a56"/><path d="M12644.337 75h95l-47.5 47.5z" fill="#46a3a3"/><path d="M12667 75h49.675l-24.838 24.838z" fill="#ffffff" fill-opacity=".814432"/><path d="M12739.337 75h-95l47.5-47.5z" fill="#6dbfbd"/><path d="M12676.567 75h30.541l-15.271 15.271z" fill="#46a3a3"/></g><g><path d="M12768 84h151.675l-75.838 75.837z" fill="#003a48"/><path d="M12768 79h151.675l-75.838 75.837z" fill="#46a3a3"/><path d="M12768.837 75h150l-75 75z" fill="#003a48"/><path d="M12918.837 75h-150l75-75z" fill="#024a56"/><path d="M12796.337 75h95l-47.5 47.5z" fill="#46a3a3"/><path d="M12819 75h49.675l-24.838 24.838z" fill="#ffffff" fill-opacity=".875968"/><path d="M12891.337 75h-95l47.5-47.5z" fill="#6dbfbd"/><path d="M12828.567 75h30.541l-15.271 15.271z" fill="#46a3a3"/></g><g><path d="M12920 84h151.675l-75.838 75.837z" fill="#003a48"/><path d="M12920 79h151.675l-75.838 75.837z" fill="#46a3a3"/><path d="M12920.837 75h150l-75 75z" fill="#003a48"/><path d="M13070.837 75h-150l75-75z" fill="#024a56"/><path d="M12948.337 75h95l-47.5 47.5z" fill="#46a3a3"/><path d="M12971 75h49.675l-24.838 24.838z" fill="#ffffff" fill-opacity=".920776"/><path d="M13043.337 75h-95l47.5-47.5z" fill="#6dbfbd"/><path d="M12980.567 75h30.541l-15.271 15.271z" fill="#46a3a3"/></g><g><path d="M13072 84h151.675l-75.838 75.837z" fill="#003a48"/><path d="M13072 79h151.675l-75.838 75.837z" fill="#46a3a3"/><path d="M13072.837 75h150l-75 75z" fill="#003a48"/><path d="M13222.837 75h-150l75-75z" fill="#024a56"/><path d="M13100.337 75h95l-47.5 47.5z" fill="#46a3a3"/><path d="M13123 75h49.675l-24.838 24.838z" fill="#ffffff" fill-opacity=".952952"/><path d="M13195.337 75h-95l47.5-47.5z" fill="#6dbfbd"/><path d="M13132.567 75h30.541l-15.271 15.271z" fill="#46a3a3"/></g><g><path d="M13224 84h151.675l-75.838 75.837z" fill="#003a48"/><path d="M13224 79h151.675l-75.838 75.837z" fill="#46a3a3"/><path d="M13224.837 75h150l-75 75z" fill="#003a48"/><path d="M13374.837 75h-150l75-75z" fill="#024a56"/><path d="M13252.337 75h95l-47.5 47.5z" fill="#46a3a3"/><path d="M13275 75h49.675l-24.838 24.838z" fill="#ffffff" fill-opacity=".975268"/><path d="M13347.337 75h-95l47.5-47.5z" fill="#6dbfbd"/><path d="M13284.567 75h30.541l-15.271 15.271z" fill="#46a3a3"/></g><g><path d="M13376 84h151.675l-75.838 75.837z" fill="#003a48"/><path d="M13376 79h151.675l-75.838 75.837z" fill="#46a3a3"/><path d="M13376.837 75h150l-75 75z" fill="#003a48"/><path d="M13526.837 75h-150l75-75z" fill="#024a56"/><path d="M13404.337 75h95l-47.5 47.5z" fill="#46a3a3"/><path d="M13427 75h49.675l-24.838 24.838z" fill="#ffffff" fill-opacity=".989667"/><path d="M13499.337 75h-95l47.5-47.5z" fill="#6dbfbd"/><path d="M13436.567 75h30.541l-15.271 15.271z" fill="#46a3a3"/></g><g><path d="M13528 84h151.675l-75.838 75.837z" fill="#003a48"/><path d="M13528 79h151.675l-75.838 75.837z" fill="#46a3a3"/><path d="M13528.837 75h150l-75 75z" fill="#003a48"/><path d="M13678.837 75h-150l75-75z" fill="#024a56"/><path d="M13556.337 75h95l-47.5 47.5z" fill="#46a3a3"/><path d="M13579 75h49.675l-24.838 24.838z" fill="#ffffff" fill-opacity=".99756"/><path d="M13651.337 75h-95l47.5-47.5z" fill="#6dbfbd"/><path d="M13588.567 75h30.541l-15.271 15.271z" fill="#46a3a3"/></g><g><path d="M13680 84h151.675l-75.838 75.837z" fill="#003a48"/><path d="M13680 79h151.675l-75.838 75.837z" fill="#46a3a3"/><path d="M13680.837 75h150l-75 75z" fill="#003a48"/><path d="M13830.837 75h-150l75-75z" fill="#024a56"/><path d="M13708.337 75h95l-47.5 47.5z" fill="#46a3a3"/><path d="M13731 75h49.675l-24.838 24.838z" fill="#ffffff"/><path d="M13803.337 75h-95l47.5-47.5z" fill="#6dbfbd"/><path d="M13740.567 75h30.541l-15.271 15.271z" fill="#46a3a3"/></g></svg>